Coordinates
version=1
nRows=34
nColumns=38
inDegrees=no

Units are S.I. units (second, meters, Newtons, ...)
If the header above contains a line with 'inDegrees', this indicates whether rotational values are in degrees (yes) or radians (no).

endheader
time	pelvis_tilt	pelvis_list	pelvis_rotation	pelvis_tx	pelvis_ty	pelvis_tz	hip_flexion_r	hip_adduction_r	hip_rotation_r	knee_angle_r	ankle_angle_r	subtalar_angle_r	mtp_angle_r	hip_flexion_l	hip_adduction_l	hip_rotation_l	knee_angle_l	ankle_angle_l	subtalar_angle_l	mtp_angle_l	lumbar_extension	lumbar_bending	lumbar_rotation	arm_flex_r	arm_add_r	arm_rot_r	elbow_flex_r	pro_sup_r	wrist_flex_r	wrist_dev_r	arm_flex_l	arm_add_l	arm_rot_l	elbow_flex_l	pro_sup_l	wrist_flex_l	wrist_dev_l
0.57	3.09135	1.41299	1.57931	0.794903	0.805305	0.995474	0.124954	0.0369808	-0.0428441	0.558334	-0.0179767	0	0	0.529346	-0.0336924	-0.237317	0.254092	-0.223374	0	0	0.120627	0.140096	0.410242	-0.475151	-0.570908	-0.303471	1.67425	0.546782	0	0	0.41276	-0.321273	0.595119	1.02605	0.762838	0	0
0.58	3.09333	1.41681	1.57176	0.794908	0.794128	0.993912	0.113456	0.0365196	-0.0383209	0.567691	-0.0159506	0	0	0.524542	-0.037857	-0.239639	0.277887	-0.22287	0	0	0.117075	0.138881	0.415837	-0.475597	-0.570098	-0.303732	1.67382	0.547703	0	0	0.41383	-0.321425	0.596528	1.02569	0.763805	0	0
0.59	3.09905	1.42066	1.56037	0.79501	0.782772	0.992293	0.104079	0.0356596	-0.0345501	0.581962	-0.0157281	0	0	0.518309	-0.0423956	-0.238842	0.303466	-0.222235	0	0	0.113603	0.13834	0.421416	-0.476827	-0.569286	-0.304524	1.67406	0.548839	0	0	0.414309	-0.322156	0.598133	1.02687	0.764747	0	0
0.6	3.10666	1.42413	1.54716	0.795272	0.771219	0.990752	0.0957532	0.0341954	-0.0303566	0.597089	-0.0178325	0	0	0.510338	-0.0460587	-0.23527	0.324195	-0.223243	0	0	0.110992	0.138211	0.426344	-0.477959	-0.568376	-0.304904	1.67382	0.550288	0	0	0.41366	-0.323204	0.599086	1.02864	0.765822	0	0
0.61	3.09598	1.42625	1.55352	0.795852	0.759662	0.98944	0.0922717	0.0286802	-0.0279368	0.618576	-0.0226114	0	0	0.503891	-0.0449089	-0.233337	0.33432	-0.231838	0	0	0.110167	0.134808	0.429189	-0.477388	-0.566956	-0.30355	1.67159	0.55263	0	0	0.411773	-0.32435	0.598318	1.03063	0.765349	0	0
0.62	3.05759	1.42678	1.59059	0.796745	0.748323	0.98866	0.0936357	0.0185641	-0.0263054	0.645727	-0.03076	0	0	0.503039	-0.0389902	-0.235318	0.341316	-0.252055	0	0	0.111123	0.125865	0.428032	-0.473084	-0.564015	-0.299273	1.66558	0.556287	0	0	0.409273	-0.325931	0.595869	1.03204	0.764029	0	0
0.63	3.00396	1.42544	1.64593	0.797874	0.737222	0.988247	0.100514	0.0061735	-0.0235373	0.680405	-0.0428166	0	0	0.506682	-0.0319774	-0.235582	0.356756	-0.276506	0	0	0.113484	0.113393	0.423507	-0.466904	-0.55949	-0.293771	1.65761	0.561079	0	0	0.406826	-0.328506	0.592931	1.03331	0.764969	0	0
0.64	2.95125	1.42462	1.70267	0.799344	0.726139	0.988174	0.109248	-0.00643836	-0.0201895	0.720545	-0.0597576	0	0	0.50863	-0.025155	-0.232088	0.378177	-0.296371	0	0	0.114227	0.10099	0.417466	-0.462283	-0.554712	-0.290151	1.65102	0.566643	0	0	0.405044	-0.3309	0.590412	1.03456	0.768841	0	0
0.65	2.90548	1.42822	1.75375	0.801215	0.71492	0.988665	0.114802	-0.0180514	-0.0178068	0.76294	-0.0808704	0	0	0.504833	-0.019584	-0.228761	0.402313	-0.306647	0	0	0.109122	0.091386	0.411518	-0.460784	-0.551121	-0.290082	1.64765	0.570934	0	0	0.404601	-0.330994	0.588664	1.03538	0.771579	0	0
0.66	2.86783	1.43679	1.79671	0.803364	0.703586	0.989721	0.116974	-0.027926	-0.0163757	0.806311	-0.112154	0	0	0.49507	-0.0167401	-0.227641	0.426354	-0.311609	0	0	0.0976763	0.085812	0.406413	-0.462023	-0.549052	-0.29324	1.64761	0.574429	0	0	0.40525	-0.329387	0.5877	1.036	0.774611	0	0
0.67	2.83745	1.44782	1.83092	0.805403	0.692214	0.991206	0.118909	-0.0357804	-0.0136585	0.849596	-0.153568	0	0	0.479844	-0.0165493	-0.225707	0.445279	-0.312031	0	0	0.0830527	0.0835686	0.403547	-0.465497	-0.548039	-0.298228	1.64975	0.576024	0	0	0.406811	-0.326994	0.587943	1.03574	0.779226	0	0
0.68	2.81229	1.45781	1.85905	0.807371	0.68106	0.992886	0.12491	-0.0428462	-0.0098092	0.89341	-0.203705	0	0	0.462495	-0.0158928	-0.218626	0.457393	-0.309089	0	0	0.0691406	0.0829083	0.401427	-0.469502	-0.547939	-0.303043	1.65251	0.57571	0	0	0.407972	-0.323947	0.587703	1.03539	0.779539	0	0
0.69	2.78764	1.46531	1.8857	0.809113	0.6702	0.994578	0.136658	-0.0499244	-0.00464079	0.939095	-0.256318	0	0	0.445924	-0.0142716	-0.212044	0.46397	-0.306059	0	0	0.0578551	0.0821074	0.399354	-0.472347	-0.548352	-0.305992	1.65481	0.574455	0	0	0.408852	-0.322145	0.587888	1.03535	0.778683	0	0
0.7	2.75446	1.47159	1.91928	0.81058	0.659592	0.996273	0.151955	-0.0568963	0.00227094	0.986351	-0.305299	0	0	0.429842	-0.0126941	-0.214789	0.466955	-0.305549	0	0	0.0473966	0.0804347	0.398235	-0.474316	-0.5492	-0.3077	1.65733	0.572358	0	0	0.410517	-0.322363	0.589729	1.03562	0.782398	0	0
0.71	2.70674	1.47702	1.96581	0.811922	0.649187	0.997895	0.169668	-0.0635462	0.0108407	1.03487	-0.341982	0	0	0.413533	-0.010358	-0.225436	0.46846	-0.30556	0	0	0.0371286	0.0778097	0.398099	-0.475824	-0.550524	-0.309052	1.66071	0.569792	0	0	0.412036	-0.323741	0.591691	1.03754	0.78374	0	0
0.72	2.63418	1.48286	2.03605	0.813261	0.638932	0.999566	0.187761	-0.0701813	0.0198496	1.08411	-0.374124	0	0	0.394399	-0.00625873	-0.238409	0.470169	-0.303212	0	0	0.0250162	0.0743135	0.398817	-0.477275	-0.552478	-0.31067	1.66536	0.56632	0	0	0.414158	-0.325787	0.594612	1.04047	0.782973	0	0
0.73	2.5255	1.48977	2.14154	0.814548	0.628811	1.00145	0.204	-0.0763509	0.0296075	1.13159	-0.404382	0	0	0.371032	-0.000833693	-0.251709	0.471559	-0.298787	0	0	0.00960907	0.0697616	0.399782	-0.477875	-0.555099	-0.311857	1.67058	0.561232	0	0	0.416395	-0.327737	0.596791	1.0443	0.774861	0	0
0.74	2.39015	1.49616	2.27396	0.815744	0.618811	1.00349	0.21924	-0.0811701	0.0394623	1.17587	-0.424688	0	0	0.345913	0.00494476	-0.264248	0.470858	-0.294814	0	0	-0.00649379	0.0651349	0.399886	-0.477473	-0.557551	-0.312419	1.67541	0.557595	0	0	0.418782	-0.329842	0.598825	1.04767	0.765189	0	0
0.75	2.24893	1.50173	2.41351	0.81687	0.608945	1.00562	0.233764	-0.0832218	0.0482688	1.21601	-0.431268	0	0	0.320959	0.00965108	-0.274607	0.467801	-0.291958	0	0	-0.0219205	0.061899	0.398547	-0.476636	-0.559414	-0.312951	1.67984	0.554782	0	0	0.421673	-0.332191	0.601513	1.04971	0.759279	0	0
0.76	2.10627	1.50752	2.55623	0.817977	0.5992	1.0079	0.246439	-0.0819265	0.0550778	1.25152	-0.421294	0	0	0.295674	0.0122956	-0.281453	0.462728	-0.289943	0	0	-0.0371438	0.0611386	0.395625	-0.475796	-0.560908	-0.313917	1.68416	0.55232	0	0	0.42463	-0.33387	0.603972	1.05101	0.754561	0	0
0.77	1.97107	1.5136	2.69337	0.819126	0.589505	1.01028	0.258418	-0.0779864	0.0588921	1.28245	-0.398867	0	0	0.271198	0.0127238	-0.2842	0.45679	-0.288451	0	0	-0.0508005	0.063262	0.391067	-0.475155	-0.56204	-0.315075	1.68784	0.550319	0	0	0.427423	-0.334849	0.606366	1.05074	0.754216	0	0
0.78	1.86922	1.51965	2.79909	0.820335	0.57992	1.01255	0.272902	-0.0725057	0.0594527	1.30969	-0.374509	0	0	0.250479	0.011105	-0.283234	0.452025	-0.287286	0	0	-0.0611083	0.0678398	0.385018	-0.474877	-0.562764	-0.316297	1.69057	0.548718	0	0	0.429217	-0.334631	0.607338	1.04949	0.754531	0	0
0.79	1.79673	1.52571	2.87603	0.821509	0.57038	1.01477	0.289797	-0.0662344	0.0586769	1.33247	-0.355866	0	0	0.232501	0.00829984	-0.280881	0.447234	-0.286768	0	0	-0.0683628	0.0739399	0.37825	-0.474165	-0.563172	-0.31672	1.69178	0.547767	0	0	0.429659	-0.333704	0.606711	1.0477	0.753608	0	0
0.8	1.75081	1.53178	2.92626	0.822556	0.560903	1.01693	0.308307	-0.0592297	0.0579875	1.35052	-0.343369	0	0	0.216562	0.00479669	-0.278245	0.442143	-0.286487	0	0	-0.0732363	0.0807554	0.371516	-0.473056	-0.56329	-0.31641	1.69178	0.547337	0	0	0.429224	-0.332733	0.605261	1.04586	0.752818	0	0
0.81	1.71599	1.53787	2.96504	0.82343	0.551453	1.01903	0.327073	-0.0517381	0.0573199	1.36402	-0.331217	0	0	0.201351	0.00100818	-0.276331	0.43622	-0.285709	0	0	-0.0768572	0.0877276	0.365384	-0.472085	-0.563279	-0.315931	1.69131	0.547381	0	0	0.428298	-0.331759	0.603267	1.04451	0.752697	0	0
0.82	1.68574	1.5439	2.99887	0.824167	0.542048	1.02101	0.34573	-0.0439688	0.056777	1.37326	-0.319042	0	0	0.18637	-0.00298206	-0.275288	0.429703	-0.28463	0	0	-0.0796672	0.0945294	0.360317	-0.471707	-0.563132	-0.31588	1.69061	0.547708	0	0	0.427602	-0.330811	0.601799	1.04369	0.753709	0	0
0.83	1.67527	1.54977	3.01269	0.824845	0.532666	1.02279	0.364752	-0.0363371	0.0559465	1.37852	-0.304335	0	0	0.172079	-0.00707367	-0.274658	0.422461	-0.283332	0	0	-0.0816888	0.101405	0.355712	-0.471766	-0.563016	-0.316334	1.69033	0.548162	0	0	0.42641	-0.330124	0.59986	1.04416	0.754957	0	0
0.84	1.68404	1.55542	3.00726	0.825522	0.523345	1.02435	0.38377	-0.0291385	0.0549064	1.37993	-0.292561	0	0	0.158852	-0.0114016	-0.274193	0.415985	-0.282032	0	0	-0.0833164	0.108185	0.351517	-0.472503	-0.5631	-0.317463	1.69057	0.548321	0	0	0.425276	-0.329652	0.598246	1.04571	0.755966	0	0
0.85	1.70526	1.56072	2.98932	0.826165	0.514098	1.02569	0.402316	-0.022486	0.0538118	1.37751	-0.284321	0	0	0.146254	-0.0157825	-0.273329	0.410081	-0.280531	0	0	-0.0847851	0.11461	0.347747	-0.47375	-0.563441	-0.318973	1.69128	0.548282	0	0	0.424579	-0.329395	0.597442	1.04777	0.756766	0	0
0.86	1.78349	1.56534	2.91432	0.82683	0.504895	1.02681	0.420452	-0.0168626	0.0527032	1.37112	-0.275661	0	0	0.134032	-0.0194747	-0.271656	0.403978	-0.278361	0	0	-0.0860848	0.120582	0.344015	-0.475376	-0.563997	-0.320894	1.69295	0.5479	0	0	0.42382	-0.329477	0.596741	1.0506	0.757677	0	0
0.87	2.01742	1.56913	2.68354	0.827496	0.495729	1.02776	0.437544	-0.0124282	0.0516561	1.36053	-0.268419	0	0	0.121658	-0.0222835	-0.269903	0.398043	-0.276072	0	0	-0.087469	0.125745	0.34063	-0.477232	-0.564636	-0.323357	1.69503	0.547355	0	0	0.423596	-0.329581	0.596708	1.05346	0.758461	0	0
0.88	-1.58472	1.56932	0.00553669	0.828159	0.486558	1.02856	0.453378	-0.00914154	0.0506138	1.34616	-0.261854	0	0	0.108978	-0.024052	-0.269039	0.392181	-0.273714	0	0	-0.0889199	0.13007	0.337592	-0.479263	-0.565474	-0.326003	1.6973	0.546911	0	0	0.423903	-0.329629	0.597358	1.05612	0.7588	0	0
0.89	-1.38334	1.56702	-0.192762	0.828843	0.477443	1.02919	0.468339	-0.00685046	0.0494362	1.32915	-0.255934	0	0	0.0964183	-0.0249188	-0.268427	0.386937	-0.270933	0	0	-0.0903349	0.133649	0.334648	-0.481305	-0.566573	-0.328792	1.6998	0.54627	0	0	0.424765	-0.329685	0.598678	1.05852	0.758746	0	0
0.9	-1.30538	1.56547	-0.267998	0.829535	0.468316	1.02965	0.482282	-0.00569691	0.0485349	1.30857	-0.250606	0	0	0.0838476	-0.0248805	-0.268357	0.381847	-0.267832	0	0	-0.0915232	0.13648	0.331957	-0.483265	-0.567908	-0.331424	1.70236	0.545256	0	0	0.42582	-0.32973	0.600449	1.06044	0.758486	0	0
